<svg width="12" height="8" viewBox="0 0 12 8" fill="none" xmlns="http://www.w3.org/2000/svg">
<mask id="path-1-inside-1" fill="white">
<path d="M5.99723 6.11785L11.2119 0.903188C11.3922 0.722912 11.6845 0.722912 11.8648 0.903188C12.0451 1.08352 12.0451 1.37581 11.8648 1.55611L6.32369 7.09724C6.14338 7.27748 5.85107 7.27748 5.67076 7.09724L0.129637 1.55611C-0.0475271 1.37267 -0.0424401 1.08035 0.141001 0.903188C0.319952 0.73038 0.603637 0.73038 0.78256 0.903188L5.99723 6.11785Z"/>
</mask>
<path d="M5.99723 6.11785L11.2119 0.903188C11.3922 0.722912 11.6845 0.722912 11.8648 0.903188C12.0451 1.08352 12.0451 1.37581 11.8648 1.55611L6.32369 7.09724C6.14338 7.27748 5.85107 7.27748 5.67076 7.09724L0.129637 1.55611C-0.0475271 1.37267 -0.0424401 1.08035 0.141001 0.903188C0.319952 0.73038 0.603637 0.73038 0.78256 0.903188L5.99723 6.11785Z" fill="#28292A"/>
<path d="M5.99723 6.11785L6.70433 6.82496L5.99723 7.53207L5.29012 6.82496L5.99723 6.11785ZM11.2119 0.903188L10.5048 0.196081L10.5048 0.196028L11.2119 0.903188ZM11.8648 0.903188L12.5719 0.196028L12.5721 0.19624L11.8648 0.903188ZM11.8648 1.55611L12.572 2.26311L12.5719 2.26322L11.8648 1.55611ZM6.32369 7.09724L7.03079 7.80434L7.03069 7.80445L6.32369 7.09724ZM5.67076 7.09724L4.96376 7.80445L4.96366 7.80434L5.67076 7.09724ZM0.129637 1.55611L-0.577469 2.26322L-0.583623 2.25706L-0.589669 2.2508L0.129637 1.55611ZM0.141001 0.903188L-0.553691 0.183881L-0.553653 0.183845L0.141001 0.903188ZM0.78256 0.903188L1.47727 0.183897L1.48352 0.189935L1.48967 0.196081L0.78256 0.903188ZM5.29012 5.41075L10.5048 0.196081L11.919 1.6103L6.70433 6.82496L5.29012 5.41075ZM10.5048 0.196028C11.0757 -0.374701 12.0011 -0.374701 12.5719 0.196028L11.1578 1.61035C11.368 1.82053 11.7087 1.82053 11.9189 1.61035L10.5048 0.196028ZM12.5721 0.19624C13.1426 0.767029 13.1427 1.69228 12.572 2.26311L11.1576 0.84911C10.9474 1.05934 10.9475 1.40001 11.1575 1.61014L12.5721 0.19624ZM12.5719 2.26322L7.03079 7.80434L5.61658 6.39013L11.1577 0.849004L12.5719 2.26322ZM7.03069 7.80445C6.45988 8.37508 5.53457 8.37508 4.96376 7.80445L6.37777 6.39002C6.16757 6.17989 5.82688 6.17989 5.61669 6.39002L7.03069 7.80445ZM4.96366 7.80434L-0.577469 2.26322L0.836744 0.849004L6.37787 6.39013L4.96366 7.80434ZM-0.589669 2.2508C-1.1505 1.6701 -1.1344 0.744718 -0.553691 0.183881L0.835694 1.62249C1.04952 1.41599 1.05544 1.07523 0.848944 0.861417L-0.589669 2.2508ZM-0.553653 0.183845C0.0127764 -0.363144 0.910794 -0.363218 1.47727 0.183897L0.0878513 1.62248C0.29648 1.82398 0.627127 1.8239 0.835656 1.62253L-0.553653 0.183845ZM1.48967 0.196081L6.70433 5.41075L5.29012 6.82496L0.0754535 1.61029L1.48967 0.196081Z" fill="black" mask="url(#path-1-inside-1)"/>
</svg>
